{
    "asset" : {
        "generator" : "Khronos glTF Blender I/O v1.4.40",
        "version" : "2.0"
    },
    "scene" : 0,
    "scenes" : [
        {
            "name" : "Scene",
            "nodes" : [
                0,
                1,
                3,
                4
            ]
        }
    ],
    "nodes" : [
        {
            "name" : "Light",
            "rotation" : [
                0.16907575726509094,
                0.7558803558349609,
                -0.27217137813568115,
                0.570947527885437
            ],
            "translation" : [
                -2.733814001083374,
                4.608069896697998,
                1.0995762348175049
            ]
        },
        {
            "name" : "Camera",
            "rotation" : [
                0.483536034822464,
                0.33687159419059753,
                -0.20870360732078552,
                0.7804827094078064
            ],
            "translation" : [
                1.4983420372009277,
                1.1716516017913818,
                1.3575540781021118
            ]
        },
        {
            "mesh" : 0,
            "name" : "Icing.001"
        },
        {
            "children" : [
                2
            ],
            "mesh" : 1,
            "name" : "Donotdothis.001",
            "translation" : [
                -0.07163108885288239,
                0.09435330331325531,
                -0.09022029489278793
            ]
        },
        {
            "mesh" : 2,
            "name" : "Plane",
            "scale" : [
                6.313632488250732,
                1,
                5.616306304931641
            ]
        }
    ],
    "materials" : [
        {
            "doubleSided" : true,
            "name" : "Material.002",
            "pbrMetallicRoughness" : {
                "baseColorFactor" : [
                    0.8000000715255737,
                    0.25031590461730957,
                    0.780401349067688,
                    1
                ],
                "metallicFactor" : 0,
                "roughnessFactor" : 0.30000001192092896
            }
        },
        {
            "doubleSided" : true,
            "name" : "Material.003",
            "pbrMetallicRoughness" : {
                "baseColorTexture" : {
                    "index" : 0,
                    "texCoord" : 0
                },
                "metallicFactor" : 0,
                "roughnessFactor" : 0.5
            }
        },
        {
            "doubleSided" : true,
            "name" : "Material.001",
            "pbrMetallicRoughness" : {
                "baseColorFactor" : [
                    0.2509189546108246,
                    0.3860163986682892,
                    0.8000000715255737,
                    1
                ],
                "metallicFactor" : 0,
                "roughnessFactor" : 0.5
            }
        }
    ],
    "meshes" : [
        {
            "name" : "Torus.003",
            "primitives" : [
                {
                    "attributes" : {
                        "POSITION" : 0,
                        "NORMAL" : 1,
                        "TEXCOORD_0" : 2
                    },
                    "indices" : 3,
                    "material" : 0
                }
            ]
        },
        {
            "name" : "Torus.002",
            "primitives" : [
                {
                    "attributes" : {
                        "POSITION" : 4,
                        "NORMAL" : 5,
                        "TEXCOORD_0" : 6
                    },
                    "indices" : 7,
                    "material" : 1
                }
            ]
        },
        {
            "name" : "Plane",
            "primitives" : [
                {
                    "attributes" : {
                        "POSITION" : 8,
                        "NORMAL" : 9,
                        "TEXCOORD_0" : 10
                    },
                    "indices" : 11,
                    "material" : 2
                }
            ]
        }
    ],
    "textures" : [
        {
            "sampler" : 0,
            "source" : 0
        }
    ],
    "images" : [
        {
            "mimeType" : "image/png",
            "name" : "Donut_texture",
            "uri" : "Donut_texture.png"
        }
    ],
    "accessors" : [
        {
            "bufferView" : 0,
            "componentType" : 5126,
            "count" : 28498,
            "max" : [
                0.2564731538295746,
                0.11269370466470718,
                0.23040592670440674
            ],
            "min" : [
                -0.22659064829349518,
                -0.015733234584331512,
                -0.2556841969490051
            ],
            "type" : "VEC3"
        },
        {
            "bufferView" : 1,
            "componentType" : 5126,
            "count" : 28498,
            "type" : "VEC3"
        },
        {
            "bufferView" : 2,
            "componentType" : 5126,
            "count" : 28498,
            "type" : "VEC2"
        },
        {
            "bufferView" : 3,
            "componentType" : 5123,
            "count" : 166656,
            "type" : "SCALAR"
        },
        {
            "bufferView" : 4,
            "componentType" : 5126,
            "count" : 9457,
            "max" : [
                0.25730589032173157,
                0.09036359190940857,
                0.2250409722328186
            ],
            "min" : [
                -0.2305888831615448,
                -0.08692774921655655,
                -0.26126202940940857
            ],
            "type" : "VEC3"
        },
        {
            "bufferView" : 5,
            "componentType" : 5126,
            "count" : 9457,
            "type" : "VEC3"
        },
        {
            "bufferView" : 6,
            "componentType" : 5126,
            "count" : 9457,
            "type" : "VEC2"
        },
        {
            "bufferView" : 7,
            "componentType" : 5123,
            "count" : 55296,
            "type" : "SCALAR"
        },
        {
            "bufferView" : 8,
            "componentType" : 5126,
            "count" : 4,
            "max" : [
                1,
                0,
                1
            ],
            "min" : [
                -1,
                0,
                -1
            ],
            "type" : "VEC3"
        },
        {
            "bufferView" : 9,
            "componentType" : 5126,
            "count" : 4,
            "type" : "VEC3"
        },
        {
            "bufferView" : 10,
            "componentType" : 5126,
            "count" : 4,
            "type" : "VEC2"
        },
        {
            "bufferView" : 11,
            "componentType" : 5123,
            "count" : 6,
            "type" : "SCALAR"
        }
    ],
    "bufferViews" : [
        {
            "buffer" : 0,
            "byteLength" : 341976,
            "byteOffset" : 0
        },
        {
            "buffer" : 0,
            "byteLength" : 341976,
            "byteOffset" : 341976
        },
        {
            "buffer" : 0,
            "byteLength" : 227984,
            "byteOffset" : 683952
        },
        {
            "buffer" : 0,
            "byteLength" : 333312,
            "byteOffset" : 911936
        },
        {
            "buffer" : 0,
            "byteLength" : 113484,
            "byteOffset" : 1245248
        },
        {
            "buffer" : 0,
            "byteLength" : 113484,
            "byteOffset" : 1358732
        },
        {
            "buffer" : 0,
            "byteLength" : 75656,
            "byteOffset" : 1472216
        },
        {
            "buffer" : 0,
            "byteLength" : 110592,
            "byteOffset" : 1547872
        },
        {
            "buffer" : 0,
            "byteLength" : 48,
            "byteOffset" : 1658464
        },
        {
            "buffer" : 0,
            "byteLength" : 48,
            "byteOffset" : 1658512
        },
        {
            "buffer" : 0,
            "byteLength" : 32,
            "byteOffset" : 1658560
        },
        {
            "buffer" : 0,
            "byteLength" : 12,
            "byteOffset" : 1658592
        }
    ],
    "samplers" : [
        {
            "magFilter" : 9729,
            "minFilter" : 9986
        }
    ],
    "buffers" : [
        {
            "byteLength" : 1658604,
            "uri" : "donotdodis.bin"
        }
    ]
}
